<svg xmlns="http://www.w3.org/2000/svg" xmlns:xlink="http://www.w3.org/1999/xlink" version="1.0" x="0" y="0" width="2400" height="1587.367348152267" viewBox="75.36950622558594 62.41110168457031 189.26098754882813 125.17779663085938" preserveAspectRatio="xMidYMid meet" color-interpolation-filters="sRGB"><g><defs><linearGradient id="92" x1="0%" y1="0%" x2="100%" y2="0%"><stop offset="0%" stop-color="#fa71cd"></stop> <stop offset="100%" stop-color="#9b59b6"></stop></linearGradient><linearGradient id="93" x1="0%" y1="0%" x2="100%" y2="0%"><stop offset="0%" stop-color="#f9d423"></stop> <stop offset="100%" stop-color="#f83600"></stop></linearGradient><linearGradient id="94" x1="0%" y1="0%" x2="100%" y2="0%"><stop offset="0%" stop-color="#0064d2"></stop> <stop offset="100%" stop-color="#1cb0f6"></stop></linearGradient><linearGradient id="95" x1="0%" y1="0%" x2="100%" y2="0%"><stop offset="0%" stop-color="#f00978"></stop> <stop offset="100%" stop-color="#3f51b1"></stop></linearGradient><linearGradient id="96" x1="0%" y1="0%" x2="100%" y2="0%"><stop offset="0%" stop-color="#7873f5"></stop> <stop offset="100%" stop-color="#ec77ab"></stop></linearGradient><linearGradient id="97" x1="0%" y1="0%" x2="100%" y2="0%"><stop offset="0%" stop-color="#f9d423"></stop> <stop offset="100%" stop-color="#e14fad"></stop></linearGradient><linearGradient id="98" x1="0%" y1="0%" x2="100%" y2="0%"><stop offset="0%" stop-color="#009efd"></stop> <stop offset="100%" stop-color="#2af598"></stop></linearGradient><linearGradient id="99" x1="0%" y1="0%" x2="100%" y2="0%"><stop offset="0%" stop-color="#ffcc00"></stop> <stop offset="100%" stop-color="#00b140"></stop></linearGradient><linearGradient id="100" x1="0%" y1="0%" x2="100%" y2="0%"><stop offset="0%" stop-color="#d51007"></stop> <stop offset="100%" stop-color="#ff8177"></stop></linearGradient><linearGradient id="102" x1="0%" y1="0%" x2="100%" y2="0%"><stop offset="0%" stop-color="#a2b6df"></stop> <stop offset="100%" stop-color="#0c3483"></stop></linearGradient><linearGradient id="103" x1="0%" y1="0%" x2="100%" y2="0%"><stop offset="0%" stop-color="#7ac5d8"></stop> <stop offset="100%" stop-color="#eea2a2"></stop></linearGradient><linearGradient id="104" x1="0%" y1="0%" x2="100%" y2="0%"><stop offset="0%" stop-color="#00ecbc"></stop> <stop offset="100%" stop-color="#007adf"></stop></linearGradient><linearGradient id="105" x1="0%" y1="0%" x2="100%" y2="0%"><stop offset="0%" stop-color="#b88746"></stop> <stop offset="100%" stop-color="#fdf5a6"></stop></linearGradient></defs><g fill="#fff" class="icon-text-wrapper icon-svg-group iconsvg" transform="translate(77.22500610351562,64.2666015625)"><g class="iconsvg-imagesvg" transform="translate(62.774993896484375,0)"><g><rect fill="#fff" fill-opacity="0" stroke-width="2" x="0" y="0" width="60" height="55.90079472296498" class="image-rect"></rect> <svg filter="url(#colors440075448)" x="0" y="0" width="60" height="55.90079472296498" filtersec="colorsf4661211848" class="image-svg-svg primary" style="overflow: visible;"><svg xmlns="http://www.w3.org/2000/svg" viewBox="0.00019065290689468384 -0.0037064694333821535 108.14981842041016 100.76066589355469"><path d="M54.22 7.59c4.86-2.86 8.5-5.37 12.47-7.15a7.6 7.6 0 0 1 6 .38c10.71 5.93 21.34 12 31.77 18.44a8.38 8.38 0 0 1 3.47 6c.24 23.42.08 46.84.22 70.27 0 4.2-1.64 5.23-5.55 5.21q-33.23-.21-66.43 0c-3.94 0-5.56-1-5.47-5.2.25-11.53.06-23.06.1-34.59 0-4.19 3.74-8.12 7.65-8.25s8 4 8 8.43c0 6.4.13 12.81 0 19.21-.07 3.09.58 4.72 4.18 4.68 12.63-.16 25.25-.12 37.88 0 3 0 4.21-1 4.19-4.13-.11-15.74.09-31.48-.22-47.21 0-2-2-4.65-3.82-5.77-9.34-5.74-18.94-11.07-28.43-16.56-1.74-1.01-3.36-2.1-6.01-3.76z" fill="#000000"></path><path d="M.07 69.38c0-8.78-.24-17.57.17-26.32a9.08 9.08 0 0 1 3.66-6.33C14 30.5 24.28 24.53 34.75 19a9.67 9.67 0 0 1 7.85.1c10.31 5.5 20.27 11.64 30.49 17.31 3 1.63 4.15 3.55 4 6.92q-.33 10.69 0 21.39c.11 3.7-1 5.16-4.94 5.2-10.51.08-11.15.17-10.31-10.15.78-9.1-2.77-13.61-10.34-18.45-9.57-6.11-16.65-5.74-26.06.15-7.46 4.67-10.79 9.12-10.13 18 .87 11.63 0 23.39.32 35.08.12 4.85-1.44 6.39-6.27 6.19-10.58-.42-9.19 1.26-9.28-9.42C0 84 .07 76.69.07 69.38z" fill="#000000"></path></svg></svg> <defs><filter id="colors440075448"><feColorMatrix type="matrix" values="0 0 0 0 0.99609375  0 0 0 0 0.99609375  0 0 0 0 0.99609375  0 0 0 1 0" class="icon-feColorMatrix "></feColorMatrix></filter> <filter id="colorsf4661211848"><feColorMatrix type="matrix" values="0 0 0 0 0.99609375  0 0 0 0 0.99609375  0 0 0 0 0.99609375  0 0 0 1 0" class="icon-fecolormatrix"></feColorMatrix></filter> <filter id="colorsb765488667"><feColorMatrix type="matrix" values="0 0 0 0 0  0 0 0 0 0  0 0 0 0 0  0 0 0 1 0" class="icon-fecolormatrix"></feColorMatrix></filter></defs></g></g> <g transform="translate(0,62.900794982910156)"><g fill-rule="" class="tp-name iconsvg-namesvg" transform="translate(0,0)"><g transform="scale(1)"><g><path d="M2.93 9.02C15.38 9.02 34.7 0.39 34.74-14.23 34.74-23.94 26.83-28.14 18.97-28.14 15.19-28.14 11.45-26.91 8.29-24.87 8.02-26.41 7.56-29.8 5.47-29.8 2.31-29.8 1.97-23.94 1.97-21.7 1.97-20.82 2.08-19.93 2.08-19.08 2.08-18.93 2.08-18.47 2.04-18.35 1.58-17.23 0.77-16.23 0.27-15.07-1.04-12.07-1.85-8.87-1.85-5.55-1.85-2.39-0.69 5.17 3.55 5.17 7.98 5.17 9.48-4.82 9.48-13.26 9.48-17.16 9.18-20.7 8.67-22.82 9.41-23.59 12.14-25.33 12.99-25.68 15.19-26.6 17.7-27.14 20.09-27.14 26.56-27.14 30.34-21.55 30.34-15.04 30.34-2.12 17.39 5.78 6.59 7.79 5.13 8.06 3.66 8.17 2.2 8.17 0.5 8.17-1.2 7.94-2.85 7.67-3.24 7.59-3.59 7.48-3.97 7.48-4.13 7.48-4.24 7.52-4.39 7.56L-4.43 7.75C-3.86 8.71 1.7 9.02 2.93 9.02ZM3.62-20.66C3.55-20.97 3.55-21.32 3.55-21.67 3.55-23.4 4.32-27.29 5.59-28.53 6.17-27.14 6.52-25.14 6.52-23.79 6.52-23.48 4.09-21.2 3.7-20.74ZM6.4-10.72C5.67-11.87 3.93-16.31 3.93-17.58 3.93-18.16 6.09-20.63 6.59-21.09 6.71-20.16 6.71-19.2 6.71-18.27 6.71-15.77 6.71-13.18 6.4-10.72ZM2.93 4.28C2.62 4.13 2.24 3.55 2.08 3.24 0.62 0.73 0.23-2.24 0.23-5.13 0.23-8.91 1.12-12.34 2.81-15.69L2.81-15.61C4.05-12.76 4.28-11.84 6.21-9.21 6.32-8.98 6.32-8.94 6.32-8.71 6.13-5.28 5.28 1.77 2.93 4.28ZM46.46 0.81C50.31 0.81 53.55-3.28 55.82-5.94 55.98-6.09 56.05-6.32 56.05-6.52 56.05-6.71 55.98-6.82 55.86-6.82 55.78-6.82 55.71-6.79 55.63-6.71 54.44-5.36 50.85-0.73 47.96-0.73 47.19-0.73 46.53-0.93 46.53-1.81 46.53-3.47 48.58-6.25 48.58-7.09 48.58-8.21 47.42-8.91 46.38-8.91 45.61-8.91 44.91-8.52 44.41-7.94 43.72-8.94 42.95-9.83 41.64-9.83 38.86-9.83 36.39-6.28 36.39-3.7 36.39-2.2 37.16-1.39 38.67-1.39 40.87-1.54 42.25-4.09 44.57-5.78 44.57-5.59 44.14-4.13 44.14-2.51 44.18-0.62 44.49 0.81 46.46 0.81ZM40.25-3.43C39.98-3.43 39.79-3.74 39.79-4.43 39.79-6.32 40.87-8.48 41.83-8.87 42.48-8.87 43.26-8.13 43.26-7.29 43.26-7.09 43.22-6.94 43.14-6.75 42.87-6.17 41.1-3.43 40.25-3.43ZM62.15 1.97C66.46 1.97 71.01-3.86 73.02-5.86 73.09-5.94 73.25-6.09 73.25-6.25 73.25-6.63 72.75-6.71 72.44-6.71 72.44-6.21 66.54 0.19 63.84 0.19 63.15 0.19 62.53-0.35 62.53-1.23 62.53-2.66 63.65-4.97 63.73-6.36 63.73-7.48 63.3-7.83 62.3-7.83 61.14-7.83 59.64-7.21 59.14-7.09L59.29-7.4C60.26-9.06 61.53-11.18 61.53-13.15 61.53-14.53 60.57-15.15 59.25-15.15 56.25-15.15 54.32-10.72 54.32-8.1 54.32-6.32 55.32-5.17 56.83-5.17L57.33-5.2C58.06-5.32 59.52-6.44 60.18-6.52 60.49-6.52 60.53-6.05 60.53-6.05 60.53-4.7 59.87-3.93 59.37-0.96 59.33-0.73 59.33-0.5 59.33-0.31 59.33 1.73 61.14 1.97 62.15 1.97ZM57.91-7.06C57.67-7.06 57.56-7.32 57.56-7.75 57.56-9.45 59.18-13.53 59.68-13.53 59.76-13.53 59.79-13.45 59.79-13.3 59.79-12.49 58.79-9.6 57.91-7.06ZM117.28 10.91C117.82 10.91 118.24 10.72 118.24 9.79L118.16 9.48C117.62 8.67 117.43 7.29 117.43 5.51 117.43-2.85 122.13-20.01 122.13-28.18 122.13-29.88 121.94-31.19 121.44-31.96 120.71-33.15 120.24-33.5 118.82-33.5 111.84-33.42 103.17-1.27 98.89-1.12 98.39-1.12 98.19-2.2 98.19-3.7 98.19-7.06 99.08-12.65 99.35-14.19 99.58-15.58 99.73-16.96 99.73-18.2 99.73-21.05 98.96-23.21 96.69-23.25 93.95-23.25 93.14-15.31 92.56-13.18 92.64-14.34 92.8-17.16 92.8-19.62 92.8-21.17 92.76-22.59 92.56-23.25 92.37-23.98 91.79-25.02 89.98-25.02 89.25-25.02 87.82-24.52 87.82-23.32 87.82-22.9 88.01-22.4 88.48-21.78 89.71-20.16 90.02-18.04 90.02-16.04L89.98-14.57C89.75-10.6 89.56-6.32 89.56-2.12 89.56 0.66 89.63 3.39 89.87 6.05 89.9 7.06 89.75 7.98 91.06 7.98 91.48 7.98 92.02 7.83 92.02 7.48L91.99 7.32C91.45 5.78 91.25 3.93 91.25 1.97 91.25-1.62 91.91-5.63 92.49-9.21 93.1-12.88 94.99-20.09 95.61-20.09 97.07-20.05 94.95 0 98.42 0 103.78 0 112.11-27.03 115.66-27.03 116.2-27.03 116.39-25.48 116.39-23.05 116.39-17.16 115.27-5.94 115.27 2 115.27 7.17 115.73 10.91 117.28 10.91ZM132.85 0.81C136.71 0.81 139.94-3.28 142.22-5.94 142.37-6.09 142.45-6.32 142.45-6.52 142.45-6.71 142.37-6.82 142.26-6.82 142.18-6.82 142.1-6.79 142.03-6.71 140.83-5.36 137.25-0.73 134.35-0.73 133.58-0.73 132.93-0.93 132.93-1.81 132.93-3.47 134.97-6.25 134.97-7.09 134.97-8.21 133.81-8.91 132.77-8.91 132-8.91 131.31-8.52 130.81-7.94 130.11-8.94 129.34-9.83 128.03-9.83 125.26-9.83 122.79-6.28 122.79-3.7 122.79-2.2 123.56-1.39 125.06-1.39 127.26-1.54 128.65-4.09 130.96-5.78 130.96-5.59 130.54-4.13 130.54-2.51 130.58-0.62 130.88 0.81 132.85 0.81ZM126.64-3.43C126.37-3.43 126.18-3.74 126.18-4.43 126.18-6.32 127.26-8.48 128.22-8.87 128.88-8.87 129.65-8.13 129.65-7.29 129.65-7.09 129.61-6.94 129.54-6.75 129.27-6.17 127.49-3.43 126.64-3.43ZM155.37 1.66C159.99 1.66 164-5.4 164-5.67 164.04-5.78 164.04-5.86 164.04-5.94 164.04-6.32 163.81-6.44 163.54-6.44 163.38-6.44 163.19-6.4 163.11-6.32 161.92-5.44 158.49-1.66 156.83-1.66 156.29-1.66 155.94-2.08 155.94-3.16 155.94-4.93 156.44-6.75 156.44-8.52 156.44-9.72 156.41-10.68 154.9-10.68 152.51-10.68 148.46-3.62 148.08-3.62L148.04-3.7C148.27-4.82 148.58-5.86 148.58-6.75 148.58-7.83 148.08-8.6 146.23-8.64 144.45-8.64 143.95-4.66 142.84-3.55 142.84-4.74 143.34-5.74 143.53-6.9L143.57-6.98C143.57-7.56 142.53-7.56 142.06-7.56 141.33-7.56 141.22-6.79 141.22-6.09L141.22-4.43C141.22-3.35 141.37-2.2 142.57-2.2 144.19-2.2 144.61-5.51 145.77-6.28 145.5-5.13 145.34-4.13 145.34-3.32 145.34-1.7 145.92-0.85 146.92-0.85 148.16-0.85 148.93-2 149.62-2.93 150.85-4.59 153.28-9.02 154.25-9.1 154.36-9.1 154.4-9.02 154.4-8.83 154.4-7.75 152.63-3.55 152.63-1.27 152.63-0.15 152.63 1.66 155.37 1.66ZM171.52 0.81C175.37 0.81 178.61-3.28 180.89-5.94 181.04-6.09 181.12-6.32 181.12-6.52 181.12-6.71 181.04-6.82 180.93-6.82 180.85-6.82 180.77-6.79 180.69-6.71 179.5-5.36 175.91-0.73 173.02-0.73 172.25-0.73 171.6-0.93 171.6-1.81 171.6-3.47 173.64-6.25 173.64-7.09 173.64-8.21 172.48-8.91 171.44-8.91 170.67-8.91 169.98-8.52 169.48-7.94 168.78-8.94 168.01-9.83 166.7-9.83 163.92-9.83 161.46-6.28 161.46-3.7 161.46-2.2 162.23-1.39 163.73-1.39 165.93-1.54 167.32-4.09 169.63-5.78 169.63-5.59 169.21-4.13 169.21-2.51 169.24-0.62 169.55 0.81 171.52 0.81ZM165.31-3.43C165.04-3.43 164.85-3.74 164.85-4.43 164.85-6.32 165.93-8.48 166.89-8.87 167.55-8.87 168.32-8.13 168.32-7.29 168.32-7.09 168.28-6.94 168.2-6.75 167.93-6.17 166.16-3.43 165.31-3.43Z" transform="translate(4.429999828338623, 33.5)"></path></g> </g></g> <g fill-rule="" class="tp-slogan iconsvg-slogansvg" fill="#fff" transform="translate(5,50.40999984741211)"><rect x="0" height="1" y="3.580000400543213" width="22.319995880126953"></rect> <rect height="1" y="3.580000400543213" width="22.319995880126953" x="153.2299919128418"></rect> <g transform="translate(25.319995880126953,0)"><g transform="scale(1)"><path d="M1.08-7.87L1.08 0L2.08 0L2.08-3.71L5.74-3.71L5.74 0L6.74 0L6.74-7.87L5.74-7.87L5.74-4.57L2.08-4.57L2.08-7.87ZM11.81 0.14C12.30 0.14 12.76 0.05 13.17-0.14C13.58-0.34 13.94-0.61 14.24-0.97C14.54-1.32 14.77-1.75 14.93-2.26C15.10-2.77 15.18-3.34 15.18-3.97C15.18-4.60 15.10-5.16 14.93-5.66C14.77-6.16 14.54-6.58 14.24-6.93C13.94-7.28 13.58-7.55 13.17-7.73C12.76-7.92 12.30-8.02 11.81-8.02C11.31-8.02 10.86-7.92 10.45-7.74C10.03-7.56 9.68-7.29 9.38-6.94C9.09-6.59 8.86-6.17 8.69-5.67C8.53-5.17 8.45-4.60 8.45-3.97C8.45-3.34 8.53-2.77 8.69-2.26C8.86-1.75 9.09-1.32 9.38-0.97C9.68-0.61 10.03-0.34 10.45-0.14C10.86 0.05 11.31 0.14 11.81 0.14ZM11.81-0.73C11.46-0.73 11.14-0.81 10.85-0.96C10.57-1.11 10.33-1.33 10.12-1.61C9.92-1.90 9.76-2.24 9.65-2.63C9.54-3.03 9.48-3.48 9.48-3.97C9.48-4.46 9.54-4.90 9.65-5.29C9.76-5.68 9.92-6.02 10.12-6.29C10.33-6.56 10.57-6.77 10.85-6.92C11.14-7.07 11.46-7.14 11.81-7.14C12.16-7.14 12.48-7.07 12.76-6.92C13.05-6.77 13.29-6.56 13.49-6.29C13.70-6.02 13.86-5.68 13.97-5.29C14.08-4.90 14.14-4.46 14.14-3.97C14.14-3.48 14.08-3.03 13.97-2.63C13.86-2.24 13.70-1.90 13.49-1.61C13.29-1.33 13.05-1.11 12.76-0.96C12.48-0.81 12.16-0.73 11.81-0.73ZM16.87-7.87L16.87 0L17.80 0L17.80-4.33C17.80-4.68 17.78-5.07 17.75-5.50C17.72-5.92 17.69-6.31 17.66-6.66L17.71-6.66L18.34-4.91L19.86-0.79L20.42-0.79L21.94-4.91L22.57-6.66L22.62-6.66C22.59-6.31 22.56-5.92 22.53-5.50C22.50-5.07 22.49-4.68 22.49-4.33L22.49 0L23.44 0L23.44-7.87L22.26-7.87L20.75-3.65L20.20-2.04L20.15-2.04L19.57-3.65L18.05-7.87ZM25.60-7.87L25.60 0L30.25 0L30.25-0.85L26.59-0.85L26.59-3.71L29.58-3.71L29.58-4.56L26.59-4.56L26.59-7.03L30.13-7.03L30.13-7.87ZM37.69-3.20L35.33-3.20L35.70-4.40C35.84-4.84 35.98-5.28 36.11-5.72C36.24-6.15 36.36-6.60 36.48-7.06L36.53-7.06C36.66-6.60 36.78-6.15 36.91-5.72C37.04-5.28 37.18-4.84 37.32-4.40ZM37.94-2.40L38.69 0L39.76 0L37.09-7.87L35.96-7.87L33.30 0L34.32 0L35.08-2.40ZM40.07-7.87L41.74 0L42.92 0L44.09-4.74C44.15-5.04 44.22-5.34 44.29-5.63C44.35-5.93 44.42-6.22 44.48-6.53L44.53-6.53C44.60-6.22 44.66-5.93 44.72-5.63C44.78-5.34 44.84-5.04 44.92-4.74L46.10 0L47.30 0L48.94-7.87L47.98-7.87L47.15-3.59C47.07-3.16 46.99-2.74 46.92-2.32C46.85-1.90 46.78-1.48 46.70-1.04L46.66-1.04C46.56-1.48 46.46-1.90 46.37-2.33C46.27-2.75 46.18-3.17 46.08-3.59L44.99-7.87L44.08-7.87L42.98-3.59C42.90-3.16 42.80-2.74 42.71-2.32C42.61-1.90 42.52-1.48 42.43-1.04L42.38-1.04C42.31-1.48 42.24-1.90 42.16-2.32C42.08-2.73 42.00-3.16 41.93-3.59L41.10-7.87ZM53.65-3.20L51.29-3.20L51.66-4.40C51.80-4.84 51.94-5.28 52.07-5.72C52.20-6.15 52.32-6.60 52.44-7.06L52.49-7.06C52.62-6.60 52.74-6.15 52.87-5.72C53.00-5.28 53.14-4.84 53.28-4.40ZM53.90-2.40L54.65 0L55.72 0L53.05-7.87L51.92-7.87L49.26 0L50.28 0L51.04-2.40ZM57.94-3.05L57.94 0L58.94 0L58.94-3.05L61.31-7.87L60.26-7.87L59.26-5.65C59.14-5.36 59.01-5.08 58.87-4.80C58.74-4.52 58.60-4.23 58.46-3.94L58.42-3.94C58.28-4.23 58.15-4.52 58.03-4.80C57.91-5.08 57.79-5.36 57.66-5.65L56.64-7.87L55.57-7.87ZM64.80-7.87L64.80 0L65.80 0L65.80-3.53L68.80-3.53L68.80-4.37L65.80-4.37L65.80-7.03L69.34-7.03L69.34-7.87ZM71.72-4.14L71.72-7.07L73.04-7.07C73.66-7.07 74.13-6.96 74.46-6.76C74.79-6.55 74.95-6.18 74.95-5.66C74.95-5.15 74.79-4.77 74.46-4.52C74.13-4.27 73.66-4.14 73.04-4.14ZM75.05 0L76.18 0L74.18-3.43C74.72-3.57 75.15-3.82 75.47-4.19C75.79-4.56 75.95-5.05 75.95-5.66C75.95-6.07 75.88-6.42 75.74-6.70C75.61-6.98 75.42-7.20 75.17-7.38C74.93-7.56 74.64-7.68 74.30-7.76C73.96-7.83 73.59-7.87 73.19-7.87L70.73-7.87L70.73 0L71.72 0L71.72-3.32L73.15-3.32ZM80.60 0.14C81.10 0.14 81.55 0.05 81.97-0.14C82.38-0.34 82.73-0.61 83.03-0.97C83.33-1.32 83.57-1.75 83.73-2.26C83.89-2.77 83.98-3.34 83.98-3.97C83.98-4.60 83.89-5.16 83.73-5.66C83.57-6.16 83.33-6.58 83.03-6.93C82.73-7.28 82.38-7.55 81.97-7.73C81.55-7.92 81.10-8.02 80.60-8.02C80.11-8.02 79.65-7.92 79.24-7.74C78.83-7.56 78.48-7.29 78.18-6.94C77.88-6.59 77.65-6.17 77.49-5.67C77.33-5.17 77.24-4.60 77.24-3.97C77.24-3.34 77.33-2.77 77.49-2.26C77.65-1.75 77.88-1.32 78.18-0.97C78.48-0.61 78.83-0.34 79.24-0.14C79.65 0.05 80.11 0.14 80.60 0.14ZM80.60-0.73C80.25-0.73 79.93-0.81 79.65-0.96C79.37-1.11 79.12-1.33 78.92-1.61C78.71-1.90 78.56-2.24 78.44-2.63C78.33-3.03 78.28-3.48 78.28-3.97C78.28-4.46 78.33-4.90 78.44-5.29C78.56-5.68 78.71-6.02 78.92-6.29C79.12-6.56 79.37-6.77 79.65-6.92C79.93-7.07 80.25-7.14 80.60-7.14C80.96-7.14 81.27-7.07 81.56-6.92C81.84-6.77 82.09-6.56 82.29-6.29C82.49-6.02 82.65-5.68 82.76-5.29C82.88-4.90 82.93-4.46 82.93-3.97C82.93-3.48 82.88-3.03 82.76-2.63C82.65-2.24 82.49-1.90 82.29-1.61C82.09-1.33 81.84-1.11 81.56-0.96C81.27-0.81 80.96-0.73 80.60-0.73ZM85.67-7.87L85.67 0L86.59 0L86.59-4.33C86.59-4.68 86.58-5.07 86.54-5.50C86.51-5.92 86.48-6.31 86.46-6.66L86.51-6.66L87.13-4.91L88.66-0.79L89.22-0.79L90.73-4.91L91.37-6.66L91.42-6.66C91.38-6.31 91.35-5.92 91.33-5.50C91.30-5.07 91.28-4.68 91.28-4.33L91.28 0L92.23 0L92.23-7.87L91.06-7.87L89.54-3.65L88.99-2.04L88.94-2.04L88.37-3.65L86.84-7.87ZM96.82-7.87L96.82 0L97.81 0L97.81-3.71L101.47-3.71L101.47 0L102.48 0L102.48-7.87L101.47-7.87L101.47-4.57L97.81-4.57L97.81-7.87ZM107.54 0.14C108.04 0.14 108.49 0.05 108.91-0.14C109.32-0.34 109.67-0.61 109.97-0.97C110.27-1.32 110.51-1.75 110.67-2.26C110.83-2.77 110.92-3.34 110.92-3.97C110.92-4.60 110.83-5.16 110.67-5.66C110.51-6.16 110.27-6.58 109.97-6.93C109.67-7.28 109.32-7.55 108.91-7.73C108.49-7.92 108.04-8.02 107.54-8.02C107.05-8.02 106.59-7.92 106.18-7.74C105.77-7.56 105.42-7.29 105.12-6.94C104.82-6.59 104.59-6.17 104.43-5.67C104.27-5.17 104.18-4.60 104.18-3.97C104.18-3.34 104.27-2.77 104.43-2.26C104.59-1.75 104.82-1.32 105.12-0.97C105.42-0.61 105.77-0.34 106.18-0.14C106.59 0.05 107.05 0.14 107.54 0.14ZM107.54-0.73C107.19-0.73 106.87-0.81 106.59-0.96C106.31-1.11 106.06-1.33 105.86-1.61C105.65-1.90 105.50-2.24 105.38-2.63C105.27-3.03 105.22-3.48 105.22-3.97C105.22-4.46 105.27-4.90 105.38-5.29C105.50-5.68 105.65-6.02 105.86-6.29C106.06-6.56 106.31-6.77 106.59-6.92C106.87-7.07 107.19-7.14 107.54-7.14C107.90-7.14 108.21-7.07 108.50-6.92C108.78-6.77 109.03-6.56 109.23-6.29C109.43-6.02 109.59-5.68 109.70-5.29C109.82-4.90 109.87-4.46 109.87-3.97C109.87-3.48 109.82-3.03 109.70-2.63C109.59-2.24 109.43-1.90 109.23-1.61C109.03-1.33 108.78-1.11 108.50-0.96C108.21-0.81 107.90-0.73 107.54-0.73ZM112.61-7.87L112.61 0L113.53 0L113.53-4.33C113.53-4.68 113.52-5.07 113.48-5.50C113.45-5.92 113.42-6.31 113.40-6.66L113.45-6.66L114.07-4.91L115.60-0.79L116.16-0.79L117.67-4.91L118.31-6.66L118.36-6.66C118.32-6.31 118.29-5.92 118.27-5.50C118.24-5.07 118.22-4.68 118.22-4.33L118.22 0L119.17 0L119.17-7.87L118.00-7.87L116.48-3.65L115.93-2.04L115.88-2.04L115.31-3.65L113.78-7.87ZM121.33-7.87L121.33 0L125.99 0L125.99-0.85L122.33-0.85L122.33-3.71L125.32-3.71L125.32-4.56L122.33-4.56L122.33-7.03L125.87-7.03L125.87-7.87Z" transform="translate(-1.08, 8.016)"></path></g></g></g></g></g><defs v-gra="od"></defs></g></svg>