<svg xmlns="http://www.w3.org/2000/svg" xmlns:xlink="http://www.w3.org/1999/xlink" version="1.0" x="0" y="0" width="2400" height="1587.367348152267" viewBox="75.36950622558594 62.41110168457031 189.26098754882813 125.17779663085938" preserveAspectRatio="xMidYMid meet" color-interpolation-filters="sRGB"><g><defs><linearGradient id="92" x1="0%" y1="0%" x2="100%" y2="0%"><stop offset="0%" stop-color="#fa71cd"></stop> <stop offset="100%" stop-color="#9b59b6"></stop></linearGradient><linearGradient id="93" x1="0%" y1="0%" x2="100%" y2="0%"><stop offset="0%" stop-color="#f9d423"></stop> <stop offset="100%" stop-color="#f83600"></stop></linearGradient><linearGradient id="94" x1="0%" y1="0%" x2="100%" y2="0%"><stop offset="0%" stop-color="#0064d2"></stop> <stop offset="100%" stop-color="#1cb0f6"></stop></linearGradient><linearGradient id="95" x1="0%" y1="0%" x2="100%" y2="0%"><stop offset="0%" stop-color="#f00978"></stop> <stop offset="100%" stop-color="#3f51b1"></stop></linearGradient><linearGradient id="96" x1="0%" y1="0%" x2="100%" y2="0%"><stop offset="0%" stop-color="#7873f5"></stop> <stop offset="100%" stop-color="#ec77ab"></stop></linearGradient><linearGradient id="97" x1="0%" y1="0%" x2="100%" y2="0%"><stop offset="0%" stop-color="#f9d423"></stop> <stop offset="100%" stop-color="#e14fad"></stop></linearGradient><linearGradient id="98" x1="0%" y1="0%" x2="100%" y2="0%"><stop offset="0%" stop-color="#009efd"></stop> <stop offset="100%" stop-color="#2af598"></stop></linearGradient><linearGradient id="99" x1="0%" y1="0%" x2="100%" y2="0%"><stop offset="0%" stop-color="#ffcc00"></stop> <stop offset="100%" stop-color="#00b140"></stop></linearGradient><linearGradient id="100" x1="0%" y1="0%" x2="100%" y2="0%"><stop offset="0%" stop-color="#d51007"></stop> <stop offset="100%" stop-color="#ff8177"></stop></linearGradient><linearGradient id="102" x1="0%" y1="0%" x2="100%" y2="0%"><stop offset="0%" stop-color="#a2b6df"></stop> <stop offset="100%" stop-color="#0c3483"></stop></linearGradient><linearGradient id="103" x1="0%" y1="0%" x2="100%" y2="0%"><stop offset="0%" stop-color="#7ac5d8"></stop> <stop offset="100%" stop-color="#eea2a2"></stop></linearGradient><linearGradient id="104" x1="0%" y1="0%" x2="100%" y2="0%"><stop offset="0%" stop-color="#00ecbc"></stop> <stop offset="100%" stop-color="#007adf"></stop></linearGradient><linearGradient id="105" x1="0%" y1="0%" x2="100%" y2="0%"><stop offset="0%" stop-color="#b88746"></stop> <stop offset="100%" stop-color="#fdf5a6"></stop></linearGradient></defs><g fill="#B88D5B" class="icon-text-wrapper icon-svg-group iconsvg" transform="translate(77.22500610351562,64.2666015625)"><g class="iconsvg-imagesvg" transform="translate(62.774993896484375,0)"><g><rect fill="#B88D5B" fill-opacity="0" stroke-width="2" x="0" y="0" width="60" height="55.90079472296498" class="image-rect"></rect> <svg filter="url(#colors4973446292)" x="0" y="0" width="60" height="55.90079472296498" filtersec="colorsf1274523278" class="image-svg-svg primary" style="overflow: visible;"><svg xmlns="http://www.w3.org/2000/svg" viewBox="0.00019065290689468384 -0.0037064694333821535 108.14981842041016 100.76066589355469"><path d="M54.22 7.59c4.86-2.86 8.5-5.37 12.47-7.15a7.6 7.6 0 0 1 6 .38c10.71 5.93 21.34 12 31.77 18.44a8.38 8.38 0 0 1 3.47 6c.24 23.42.08 46.84.22 70.27 0 4.2-1.64 5.23-5.55 5.21q-33.23-.21-66.43 0c-3.94 0-5.56-1-5.47-5.2.25-11.53.06-23.06.1-34.59 0-4.19 3.74-8.12 7.65-8.25s8 4 8 8.43c0 6.4.13 12.81 0 19.21-.07 3.09.58 4.72 4.18 4.68 12.63-.16 25.25-.12 37.88 0 3 0 4.21-1 4.19-4.13-.11-15.74.09-31.48-.22-47.21 0-2-2-4.65-3.82-5.77-9.34-5.74-18.94-11.07-28.43-16.56-1.74-1.01-3.36-2.1-6.01-3.76z" fill="#B88D5B"></path><path d="M.07 69.38c0-8.78-.24-17.57.17-26.32a9.08 9.08 0 0 1 3.66-6.33C14 30.5 24.28 24.53 34.75 19a9.67 9.67 0 0 1 7.85.1c10.31 5.5 20.27 11.64 30.49 17.31 3 1.63 4.15 3.55 4 6.92q-.33 10.69 0 21.39c.11 3.7-1 5.16-4.94 5.2-10.51.08-11.15.17-10.31-10.15.78-9.1-2.77-13.61-10.34-18.45-9.57-6.11-16.65-5.74-26.06.15-7.46 4.67-10.79 9.12-10.13 18 .87 11.63 0 23.39.32 35.08.12 4.85-1.44 6.39-6.27 6.19-10.58-.42-9.19 1.26-9.28-9.42C0 84 .07 76.69.07 69.38z" fill="#B88D5B"></path></svg></svg> <defs><filter id="colors4973446292"><feColorMatrix type="matrix" values="0 0 0 0 0.71875  0 0 0 0 0.55078125  0 0 0 0 0.35546875  0 0 0 1 0" class="icon-feColorMatrix "></feColorMatrix></filter> <filter id="colorsf1274523278"><feColorMatrix type="matrix" values="0 0 0 0 0.99609375  0 0 0 0 0.99609375  0 0 0 0 0.99609375  0 0 0 1 0" class="icon-fecolormatrix"></feColorMatrix></filter> <filter id="colorsb6917840162"><feColorMatrix type="matrix" values="0 0 0 0 0  0 0 0 0 0  0 0 0 0 0  0 0 0 1 0" class="icon-fecolormatrix"></feColorMatrix></filter></defs></g></g> <g transform="translate(0,62.900794982910156)"><g fill-rule="" class="tp-name iconsvg-namesvg" transform="translate(0,0)"><g transform="scale(1)"><g><path d="M2.93 9.02C15.38 9.02 34.7 0.39 34.74-14.23 34.74-23.94 26.83-28.14 18.97-28.14 15.19-28.14 11.45-26.91 8.29-24.87 8.02-26.41 7.56-29.8 5.47-29.8 2.31-29.8 1.97-23.94 1.97-21.7 1.97-20.82 2.08-19.93 2.08-19.08 2.08-18.93 2.08-18.47 2.04-18.35 1.58-17.23 0.77-16.23 0.27-15.07-1.04-12.07-1.85-8.87-1.85-5.55-1.85-2.39-0.69 5.17 3.55 5.17 7.98 5.17 9.48-4.82 9.48-13.26 9.48-17.16 9.18-20.7 8.67-22.82 9.41-23.59 12.14-25.33 12.99-25.68 15.19-26.6 17.7-27.14 20.09-27.14 26.56-27.14 30.34-21.55 30.34-15.04 30.34-2.12 17.39 5.78 6.59 7.79 5.13 8.06 3.66 8.17 2.2 8.17 0.5 8.17-1.2 7.94-2.85 7.67-3.24 7.59-3.59 7.48-3.97 7.48-4.13 7.48-4.24 7.52-4.39 7.56L-4.43 7.75C-3.86 8.71 1.7 9.02 2.93 9.02ZM3.62-20.66C3.55-20.97 3.55-21.32 3.55-21.67 3.55-23.4 4.32-27.29 5.59-28.53 6.17-27.14 6.52-25.14 6.52-23.79 6.52-23.48 4.09-21.2 3.7-20.74ZM6.4-10.72C5.67-11.87 3.93-16.31 3.93-17.58 3.93-18.16 6.09-20.63 6.59-21.09 6.71-20.16 6.71-19.2 6.71-18.27 6.71-15.77 6.71-13.18 6.4-10.72ZM2.93 4.28C2.62 4.13 2.24 3.55 2.08 3.24 0.62 0.73 0.23-2.24 0.23-5.13 0.23-8.91 1.12-12.34 2.81-15.69L2.81-15.61C4.05-12.76 4.28-11.84 6.21-9.21 6.32-8.98 6.32-8.94 6.32-8.71 6.13-5.28 5.28 1.77 2.93 4.28ZM46.46 0.81C50.31 0.81 53.55-3.28 55.82-5.94 55.98-6.09 56.05-6.32 56.05-6.52 56.05-6.71 55.98-6.82 55.86-6.82 55.78-6.82 55.71-6.79 55.63-6.71 54.44-5.36 50.85-0.73 47.96-0.73 47.19-0.73 46.53-0.93 46.53-1.81 46.53-3.47 48.58-6.25 48.58-7.09 48.58-8.21 47.42-8.91 46.38-8.91 45.61-8.91 44.91-8.52 44.41-7.94 43.72-8.94 42.95-9.83 41.64-9.83 38.86-9.83 36.39-6.28 36.39-3.7 36.39-2.2 37.16-1.39 38.67-1.39 40.87-1.54 42.25-4.09 44.57-5.78 44.57-5.59 44.14-4.13 44.14-2.51 44.18-0.62 44.49 0.81 46.46 0.81ZM40.25-3.43C39.98-3.43 39.79-3.74 39.79-4.43 39.79-6.32 40.87-8.48 41.83-8.87 42.48-8.87 43.26-8.13 43.26-7.29 43.26-7.09 43.22-6.94 43.14-6.75 42.87-6.17 41.1-3.43 40.25-3.43ZM62.15 1.97C66.46 1.97 71.01-3.86 73.02-5.86 73.09-5.94 73.25-6.09 73.25-6.25 73.25-6.63 72.75-6.71 72.44-6.71 72.44-6.21 66.54 0.19 63.84 0.19 63.15 0.19 62.53-0.35 62.53-1.23 62.53-2.66 63.65-4.97 63.73-6.36 63.73-7.48 63.3-7.83 62.3-7.83 61.14-7.83 59.64-7.21 59.14-7.09L59.29-7.4C60.26-9.06 61.53-11.18 61.53-13.15 61.53-14.53 60.57-15.15 59.25-15.15 56.25-15.15 54.32-10.72 54.32-8.1 54.32-6.32 55.32-5.17 56.83-5.17L57.33-5.2C58.06-5.32 59.52-6.44 60.18-6.52 60.49-6.52 60.53-6.05 60.53-6.05 60.53-4.7 59.87-3.93 59.37-0.96 59.33-0.73 59.33-0.5 59.33-0.31 59.33 1.73 61.14 1.97 62.15 1.97ZM57.91-7.06C57.67-7.06 57.56-7.32 57.56-7.75 57.56-9.45 59.18-13.53 59.68-13.53 59.76-13.53 59.79-13.45 59.79-13.3 59.79-12.49 58.79-9.6 57.91-7.06ZM117.28 10.91C117.82 10.91 118.24 10.72 118.24 9.79L118.16 9.48C117.62 8.67 117.43 7.29 117.43 5.51 117.43-2.85 122.13-20.01 122.13-28.18 122.13-29.88 121.94-31.19 121.44-31.96 120.71-33.15 120.24-33.5 118.82-33.5 111.84-33.42 103.17-1.27 98.89-1.12 98.39-1.12 98.19-2.2 98.19-3.7 98.19-7.06 99.08-12.65 99.35-14.19 99.58-15.58 99.73-16.96 99.73-18.2 99.73-21.05 98.96-23.21 96.69-23.25 93.95-23.25 93.14-15.31 92.56-13.18 92.64-14.34 92.8-17.16 92.8-19.62 92.8-21.17 92.76-22.59 92.56-23.25 92.37-23.98 91.79-25.02 89.98-25.02 89.25-25.02 87.82-24.52 87.82-23.32 87.82-22.9 88.01-22.4 88.48-21.78 89.71-20.16 90.02-18.04 90.02-16.04L89.98-14.57C89.75-10.6 89.56-6.32 89.56-2.12 89.56 0.66 89.63 3.39 89.87 6.05 89.9 7.06 89.75 7.98 91.06 7.98 91.48 7.98 92.02 7.83 92.02 7.48L91.99 7.32C91.45 5.78 91.25 3.93 91.25 1.97 91.25-1.62 91.91-5.63 92.49-9.21 93.1-12.88 94.99-20.09 95.61-20.09 97.07-20.05 94.95 0 98.42 0 103.78 0 112.11-27.03 115.66-27.03 116.2-27.03 116.39-25.48 116.39-23.05 116.39-17.16 115.27-5.94 115.27 2 115.27 7.17 115.73 10.91 117.28 10.91ZM132.85 0.81C136.71 0.81 139.94-3.28 142.22-5.94 142.37-6.09 142.45-6.32 142.45-6.52 142.45-6.71 142.37-6.82 142.26-6.82 142.18-6.82 142.1-6.79 142.03-6.71 140.83-5.36 137.25-0.73 134.35-0.73 133.58-0.73 132.93-0.93 132.93-1.81 132.93-3.47 134.97-6.25 134.97-7.09 134.97-8.21 133.81-8.91 132.77-8.91 132-8.91 131.31-8.52 130.81-7.94 130.11-8.94 129.34-9.83 128.03-9.83 125.26-9.83 122.79-6.28 122.79-3.7 122.79-2.2 123.56-1.39 125.06-1.39 127.26-1.54 128.65-4.09 130.96-5.78 130.96-5.59 130.54-4.13 130.54-2.51 130.58-0.62 130.88 0.81 132.85 0.81ZM126.64-3.43C126.37-3.43 126.18-3.74 126.18-4.43 126.18-6.32 127.26-8.48 128.22-8.87 128.88-8.87 129.65-8.13 129.65-7.29 129.65-7.09 129.61-6.94 129.54-6.75 129.27-6.17 127.49-3.43 126.64-3.43ZM155.37 1.66C159.99 1.66 164-5.4 164-5.67 164.04-5.78 164.04-5.86 164.04-5.94 164.04-6.32 163.81-6.44 163.54-6.44 163.38-6.44 163.19-6.4 163.11-6.32 161.92-5.44 158.49-1.66 156.83-1.66 156.29-1.66 155.94-2.08 155.94-3.16 155.94-4.93 156.44-6.75 156.44-8.52 156.44-9.72 156.41-10.68 154.9-10.68 152.51-10.68 148.46-3.62 148.08-3.62L148.04-3.7C148.27-4.82 148.58-5.86 148.58-6.75 148.58-7.83 148.08-8.6 146.23-8.64 144.45-8.64 143.95-4.66 142.84-3.55 142.84-4.74 143.34-5.74 143.53-6.9L143.57-6.98C143.57-7.56 142.53-7.56 142.06-7.56 141.33-7.56 141.22-6.79 141.22-6.09L141.22-4.43C141.22-3.35 141.37-2.2 142.57-2.2 144.19-2.2 144.61-5.51 145.77-6.28 145.5-5.13 145.34-4.13 145.34-3.32 145.34-1.7 145.92-0.85 146.92-0.85 148.16-0.85 148.93-2 149.62-2.93 150.85-4.59 153.28-9.02 154.25-9.1 154.36-9.1 154.4-9.02 154.4-8.83 154.4-7.75 152.63-3.55 152.63-1.27 152.63-0.15 152.63 1.66 155.37 1.66ZM171.52 0.81C175.37 0.81 178.61-3.28 180.89-5.94 181.04-6.09 181.12-6.32 181.12-6.52 181.12-6.71 181.04-6.82 180.93-6.82 180.85-6.82 180.77-6.79 180.69-6.71 179.5-5.36 175.91-0.73 173.02-0.73 172.25-0.73 171.6-0.93 171.6-1.81 171.6-3.47 173.64-6.25 173.64-7.09 173.64-8.21 172.48-8.91 171.44-8.91 170.67-8.91 169.98-8.52 169.48-7.94 168.78-8.94 168.01-9.83 166.7-9.83 163.92-9.83 161.46-6.28 161.46-3.7 161.46-2.2 162.23-1.39 163.73-1.39 165.93-1.54 167.32-4.09 169.63-5.78 169.63-5.59 169.21-4.13 169.21-2.51 169.24-0.62 169.55 0.81 171.52 0.81ZM165.31-3.43C165.04-3.43 164.85-3.74 164.85-4.43 164.85-6.32 165.93-8.48 166.89-8.87 167.55-8.87 168.32-8.13 168.32-7.29 168.32-7.09 168.28-6.94 168.2-6.75 167.93-6.17 166.16-3.43 165.31-3.43Z" transform="translate(4.429999828338623, 33.5)"></path></g> </g></g> </g></g><defs v-gra="od"></defs></g></svg>