<svg xmlns="http://www.w3.org/2000/svg" xmlns:xlink="http://www.w3.org/1999/xlink" version="1.0" x="0" y="0" width="2400" height="2239.2468620749078" viewBox="139.4 96.4496063232422 61.2 57.10079498291016" preserveAspectRatio="xMidYMid meet" color-interpolation-filters="sRGB"><g><defs><linearGradient id="92" x1="0%" y1="0%" x2="100%" y2="0%"><stop offset="0%" stop-color="#fa71cd"></stop> <stop offset="100%" stop-color="#9b59b6"></stop></linearGradient><linearGradient id="93" x1="0%" y1="0%" x2="100%" y2="0%"><stop offset="0%" stop-color="#f9d423"></stop> <stop offset="100%" stop-color="#f83600"></stop></linearGradient><linearGradient id="94" x1="0%" y1="0%" x2="100%" y2="0%"><stop offset="0%" stop-color="#0064d2"></stop> <stop offset="100%" stop-color="#1cb0f6"></stop></linearGradient><linearGradient id="95" x1="0%" y1="0%" x2="100%" y2="0%"><stop offset="0%" stop-color="#f00978"></stop> <stop offset="100%" stop-color="#3f51b1"></stop></linearGradient><linearGradient id="96" x1="0%" y1="0%" x2="100%" y2="0%"><stop offset="0%" stop-color="#7873f5"></stop> <stop offset="100%" stop-color="#ec77ab"></stop></linearGradient><linearGradient id="97" x1="0%" y1="0%" x2="100%" y2="0%"><stop offset="0%" stop-color="#f9d423"></stop> <stop offset="100%" stop-color="#e14fad"></stop></linearGradient><linearGradient id="98" x1="0%" y1="0%" x2="100%" y2="0%"><stop offset="0%" stop-color="#009efd"></stop> <stop offset="100%" stop-color="#2af598"></stop></linearGradient><linearGradient id="99" x1="0%" y1="0%" x2="100%" y2="0%"><stop offset="0%" stop-color="#ffcc00"></stop> <stop offset="100%" stop-color="#00b140"></stop></linearGradient><linearGradient id="100" x1="0%" y1="0%" x2="100%" y2="0%"><stop offset="0%" stop-color="#d51007"></stop> <stop offset="100%" stop-color="#ff8177"></stop></linearGradient><linearGradient id="102" x1="0%" y1="0%" x2="100%" y2="0%"><stop offset="0%" stop-color="#a2b6df"></stop> <stop offset="100%" stop-color="#0c3483"></stop></linearGradient><linearGradient id="103" x1="0%" y1="0%" x2="100%" y2="0%"><stop offset="0%" stop-color="#7ac5d8"></stop> <stop offset="100%" stop-color="#eea2a2"></stop></linearGradient><linearGradient id="104" x1="0%" y1="0%" x2="100%" y2="0%"><stop offset="0%" stop-color="#00ecbc"></stop> <stop offset="100%" stop-color="#007adf"></stop></linearGradient><linearGradient id="105" x1="0%" y1="0%" x2="100%" y2="0%"><stop offset="0%" stop-color="#b88746"></stop> <stop offset="100%" stop-color="#fdf5a6"></stop></linearGradient></defs><g class="imagesvg isNoFont" transform="translate(140.00000000000807,97.04960250854492)"><g><rect fill="#B88D5B" fill-opacity="0" stroke-width="2" x="0" y="0" width="60" height="55.90079472296498" class="image-rect"></rect> <svg filter="url(#colors3899530410)" x="0" y="0" width="60" height="55.90079472296498" filtersec="colorsf5866270738" class="image-svg-svg primary" style="overflow: visible;"><svg xmlns="http://www.w3.org/2000/svg" viewBox="0.00019065290689468384 -0.0037064694333821535 108.14981842041016 100.76066589355469"><path d="M54.22 7.59c4.86-2.86 8.5-5.37 12.47-7.15a7.6 7.6 0 0 1 6 .38c10.71 5.93 21.34 12 31.77 18.44a8.38 8.38 0 0 1 3.47 6c.24 23.42.08 46.84.22 70.27 0 4.2-1.64 5.23-5.55 5.21q-33.23-.21-66.43 0c-3.94 0-5.56-1-5.47-5.2.25-11.53.06-23.06.1-34.59 0-4.19 3.74-8.12 7.65-8.25s8 4 8 8.43c0 6.4.13 12.81 0 19.21-.07 3.09.58 4.72 4.18 4.68 12.63-.16 25.25-.12 37.88 0 3 0 4.21-1 4.19-4.13-.11-15.74.09-31.48-.22-47.21 0-2-2-4.65-3.82-5.77-9.34-5.74-18.94-11.07-28.43-16.56-1.74-1.01-3.36-2.1-6.01-3.76z" fill="#000000"></path><path d="M.07 69.38c0-8.78-.24-17.57.17-26.32a9.08 9.08 0 0 1 3.66-6.33C14 30.5 24.28 24.53 34.75 19a9.67 9.67 0 0 1 7.85.1c10.31 5.5 20.27 11.64 30.49 17.31 3 1.63 4.15 3.55 4 6.92q-.33 10.69 0 21.39c.11 3.7-1 5.16-4.94 5.2-10.51.08-11.15.17-10.31-10.15.78-9.1-2.77-13.61-10.34-18.45-9.57-6.11-16.65-5.74-26.06.15-7.46 4.67-10.79 9.12-10.13 18 .87 11.63 0 23.39.32 35.08.12 4.85-1.44 6.39-6.27 6.19-10.58-.42-9.19 1.26-9.28-9.42C0 84 .07 76.69.07 69.38z" fill="#000000"></path></svg></svg> <defs><filter id="colors3899530410"><feColorMatrix type="matrix" values="0 0 0 0 0.71875  0 0 0 0 0.55078125  0 0 0 0 0.35546875  0 0 0 1 0" class="icon-feColorMatrix "></feColorMatrix></filter> <filter id="colorsf5866270738"><feColorMatrix type="matrix" values="0 0 0 0 0.99609375  0 0 0 0 0.99609375  0 0 0 0 0.99609375  0 0 0 1 0" class="icon-fecolormatrix"></feColorMatrix></filter> <filter id="colorsb7439205998"><feColorMatrix type="matrix" values="0 0 0 0 0  0 0 0 0 0  0 0 0 0 0  0 0 0 1 0" class="icon-fecolormatrix"></feColorMatrix></filter></defs></g></g><defs v-gra="od"></defs></g></svg>